<?xml version="1.0" encoding="utf-8"?>
<!-- Generator: Adobe Illustrator 25.2.0, SVG Export Plug-In . SVG Version: 6.00 Build 0)  -->
<svg version="1.1" id="Calque_1" xmlns="http://www.w3.org/2000/svg" xmlns:xlink="http://www.w3.org/1999/xlink" x="0px" y="0px"
	 viewBox="0 0 1644.09 1644.09" style="enable-background:new 0 0 1644.09 1644.09;" xml:space="preserve">
<style type="text/css">
	.st0{display:none;stroke:#232552;stroke-width:52;stroke-miterlimit:10;}
	.st1{fill:#FFFFFF;stroke:#000000;stroke-width:22;stroke-miterlimit:10;}
	.st2{fill:#FFFFFF;stroke:#000000;stroke-width:70;stroke-miterlimit:10;}
	.st3{fill:#FFFFFF;}
	.st4{fill:#003C50;stroke:#000000;stroke-width:0.5;stroke-miterlimit:10;}
	.st5{fill:#004E66;stroke:#FFFFFF;stroke-miterlimit:10;}
	.st6{fill:#005F7C;stroke:#FFFFFF;stroke-miterlimit:10;}
</style>
<g>
	<ellipse class="st0" cx="772.27" cy="775.62" rx="628.12" ry="622.62"/>
	<ellipse class="st1" cx="827.17" cy="777.15" rx="683.02" ry="679.55"/>
	<ellipse class="st2" cx="830.16" cy="774.82" rx="570.23" ry="561.23"/>
	<ellipse class="st3" cx="521.67" cy="1245.52" rx="21.79" ry="22.18"/>
	<ellipse class="st3" cx="1391.83" cy="814.93" rx="21.79" ry="22.18"/>
	<ellipse class="st3" cx="521.67" cy="304.1" rx="21.79" ry="22.18"/>
	<ellipse class="st3" cx="268.49" cy="814.93" rx="21.79" ry="22.18"/>
	<ellipse class="st3" cx="1144.53" cy="1245.52" rx="21.79" ry="22.18"/>
	<ellipse class="st3" cx="1139.34" cy="304.1" rx="21.79" ry="22.18"/>
	<path class="st4" d="M479.73,1001.37c34.98-172.84,106.07-342.27,237.35-417.6c90.52-51.94,180.45-85.03,293.99-75.25
		c86.75,7.48,277.66,52.64,228.48,233.15c-41.12,150.92-168.53,33.14-168.53,33.14c6.3,4.66,61.73,14.6,52.85-46.01
		c-9.1-62.1-104.07-82.46-151.8,4c-31.96,57.88-38.35,132.6,46.99,208.39c51.17,45.44,130.27,57.43,145.23,60.19"/>
	<path class="st5" d="M479.73,1002.88c26.79-135.21,81.25-267.75,181.81-326.69c69.34-40.63,138.23-66.52,225.19-58.87
		c66.45,5.85,212.68,41.18,175.01,182.39c-31.49,118.06-129.09,25.92-129.09,25.92c4.83,3.65,47.28,11.42,40.48-35.99
		c-6.97-48.58-79.72-64.5-116.28,3.13c-24.48,45.28-29.37,103.73,35.99,163.02c39.19,35.55,99.79,44.92,111.25,47.08"/>
	<path class="st6" d="M479.73,1002.88c20.49-94.06,62.15-186.27,139.07-227.26c53.04-28.27,105.73-46.28,172.25-40.95
		c50.83,4.07,162.68,28.65,133.87,126.89c-24.09,82.13-98.75,18.03-98.75,18.03c3.69,2.54,36.17,7.94,30.96-25.04
		c-5.33-33.8-60.98-44.87-88.94,2.17c-18.72,31.5-22.47,72.16,27.53,113.41c29.98,24.73,76.33,31.25,85.09,32.75"/>
	<path class="st3" d="M453.59,1002.88c47.65-32.71,81.61,13.27,121.49-18.99c50.6-40.92,76.95-74.85,156.56-34.98
		c48.5,24.29,62.03,45.14,98.3,49.08c48.82,5.31,59.03-20.29,109.28-28.93c92.69-15.95,110.75,39.43,185.42,13.92
		c42.35-14.46,81.04-5.89,108.76,2.17c13.61,3.96,23.05,14.99,29,21.5"/>
</g>
</svg>
